<?xml version="1.0" encoding="UTF-8"?>
<!DOCTYPE svg PUBLIC "-//W3C//DTD SVG 1.1//EN" "http://www.w3.org/Graphics/SVG/1.1/DTD/svg11.dtd">
<svg xmlns="http://www.w3.org/2000/svg" version="1.1" width="30px" height="30px" style="shape-rendering:geometricPrecision; text-rendering:geometricPrecision; image-rendering:optimizeQuality; fill-rule:evenodd; clip-rule:evenodd" xmlns:xlink="http://www.w3.org/1999/xlink">
<g><path style="opacity:1" fill="#f5f5f5" d="M -0.5,-0.5 C 9.5,-0.5 19.5,-0.5 29.5,-0.5C 29.5,3.5 29.5,7.5 29.5,11.5C 27.4096,8.12522 24.4096,6.95856 20.5,8C 21.2524,8.67076 21.5858,9.5041 21.5,10.5C 21.5654,10.9382 21.3988,11.2716 21,11.5C 20.5831,10.244 19.7498,9.57735 18.5,9.5C 13.7855,7.45476 8.78546,6.95476 3.5,8C 1.64977,8.68972 0.316435,9.85639 -0.5,11.5C -0.5,7.5 -0.5,3.5 -0.5,-0.5 Z"/></g>
<g><path style="opacity:1" fill="#030303" d="M 18.5,9.5 C 19.0668,11.0295 19.7334,12.5295 20.5,14C 19.8333,14.1667 19.1667,14.3333 18.5,14.5C 14.9283,10.8348 10.5949,9.66813 5.5,11C 2.61441,14.6259 3.28108,17.4593 7.5,19.5C 7.61071,20.1174 7.94404,20.6174 8.5,21C 4.59041,22.0414 1.59041,20.8748 -0.5,17.5C -0.5,15.5 -0.5,13.5 -0.5,11.5C 0.316435,9.85639 1.64977,8.68972 3.5,8C 8.78546,6.95476 13.7855,7.45476 18.5,9.5 Z"/></g>
<g><path style="opacity:1" fill="#020202" d="M 29.5,11.5 C 29.5,13.5 29.5,15.5 29.5,17.5C 26.9317,20.9209 23.4317,22.2542 19,21.5C 15.2459,21.9907 12.0792,20.9907 9.5,18.5C 9.66997,17.1779 9.33663,16.0113 8.5,15C 9.16667,14.8333 9.83333,14.6667 10.5,14.5C 14.872,18.817 19.7053,19.4836 25,16.5C 26.1215,13.1284 24.9549,11.1284 21.5,10.5C 21.5858,9.5041 21.2524,8.67076 20.5,8C 24.4096,6.95856 27.4096,8.12522 29.5,11.5 Z"/></g>
<g><path style="opacity:1" fill="#f5f5f5" d="M 18.5,9.5 C 19.7498,9.57735 20.5831,10.244 21,11.5C 21.3988,11.2716 21.5654,10.9382 21.5,10.5C 24.9549,11.1284 26.1215,13.1284 25,16.5C 19.7053,19.4836 14.872,18.817 10.5,14.5C 9.83333,14.6667 9.16667,14.8333 8.5,15C 9.33663,16.0113 9.66997,17.1779 9.5,18.5C 8.83333,18.8333 8.16667,19.1667 7.5,19.5C 3.28108,17.4593 2.61441,14.6259 5.5,11C 10.5949,9.66813 14.9283,10.8348 18.5,14.5C 19.1667,14.3333 19.8333,14.1667 20.5,14C 19.7334,12.5295 19.0668,11.0295 18.5,9.5 Z"/></g>
<g><path style="opacity:1" fill="#f5f5f5" d="M -0.5,17.5 C 1.59041,20.8748 4.59041,22.0414 8.5,21C 7.94404,20.6174 7.61071,20.1174 7.5,19.5C 8.16667,19.1667 8.83333,18.8333 9.5,18.5C 12.0792,20.9907 15.2459,21.9907 19,21.5C 23.4317,22.2542 26.9317,20.9209 29.5,17.5C 29.5,21.5 29.5,25.5 29.5,29.5C 19.5,29.5 9.5,29.5 -0.5,29.5C -0.5,25.5 -0.5,21.5 -0.5,17.5 Z"/></g>
</svg>
